<?xml version="1.0" standalone="no"?>
<!DOCTYPE svg PUBLIC "-//W3C//DTD SVG 20010904//EN"
 "http://www.w3.org/TR/2001/REC-SVG-20010904/DTD/svg10.dtd">
<svg version="1.0" xmlns="http://www.w3.org/2000/svg"
 width="1024.000000pt" height="1024.000000pt" viewBox="0 0 1024.000000 1024.000000"
 preserveAspectRatio="xMidYMid meet">

<g transform="translate(0.000000,1024.000000) scale(0.100000,-0.100000)"
fill="#000000" stroke="none">
<path d="M3988 7883 c12 -2 32 -2 45 0 12 2 2 4 -23 4 -25 0 -35 -2 -22 -4z"/>
<path d="M4073 7743 c9 -2 23 -2 30 0 6 3 -1 5 -18 5 -16 0 -22 -2 -12 -5z"/>
<path d="M4168 7733 c7 -3 16 -2 19 1 4 3 -2 6 -13 5 -11 0 -14 -3 -6 -6z"/>
<path d="M4780 7626 c0 -2 8 -10 18 -17 15 -13 16 -12 3 4 -13 16 -21 21 -21
13z"/>
<path d="M3992 7585 c0 -16 2 -22 5 -12 2 9 2 23 0 30 -3 6 -5 -1 -5 -18z"/>
<path d="M3862 7555 c0 -16 2 -22 5 -12 2 9 2 23 0 30 -3 6 -5 -1 -5 -18z"/>
<path d="M6228 7553 c12 -2 32 -2 45 0 12 2 2 4 -23 4 -25 0 -35 -2 -22 -4z"/>
<path d="M6331 7544 c0 -11 3 -14 6 -6 3 7 2 16 -1 19 -3 4 -6 -2 -5 -13z"/>
<path d="M6108 7543 c7 -3 16 -2 19 1 4 3 -2 6 -13 5 -11 0 -14 -3 -6 -6z"/>
<path d="M6038 7533 c7 -3 16 -2 19 1 4 3 -2 6 -13 5 -11 0 -14 -3 -6 -6z"/>
<path d="M4690 7526 c0 -2 8 -10 18 -17 15 -13 16 -12 3 4 -13 16 -21 21 -21
13z"/>
<path d="M6334 7420 c0 -58 1 -81 3 -52 2 28 2 76 0 105 -2 28 -3 5 -3 -53z"/>
<path d="M3871 7464 c0 -11 3 -14 6 -6 3 7 2 16 -1 19 -3 4 -6 -2 -5 -13z"/>
<path d="M6148 7413 c7 -3 16 -2 19 1 4 3 -2 6 -13 5 -11 0 -14 -3 -6 -6z"/>
<path d="M6203 7385 c0 -22 2 -30 4 -17 2 12 2 30 0 40 -3 9 -5 -1 -4 -23z"/>
<path d="M6191 7284 c0 -11 3 -14 6 -6 3 7 2 16 -1 19 -3 4 -6 -2 -5 -13z"/>
<path d="M5464 7268 l-19 -23 23 19 c12 11 22 21 22 23 0 8 -8 2 -26 -19z"/>
<path d="M4610 7236 c0 -2 8 -10 18 -17 15 -13 16 -12 3 4 -13 16 -21 21 -21
13z"/>
<path d="M5399 7203 l-24 -28 28 24 c15 14 27 26 27 28 0 8 -8 1 -31 -24z"/>
<path d="M5569 7183 c-13 -16 -12 -17 4 -4 9 7 17 15 17 17 0 8 -8 3 -21 -13z"/>
<path d="M4760 7098 c41 -45 50 -53 50 -45 0 2 -21 23 -47 47 l-48 45 45 -47z"/>
<path d="M4595 7080 c21 -22 41 -40 44 -40 3 0 -13 18 -34 40 -21 22 -41 40
-44 40 -3 0 13 -18 34 -40z"/>
<path d="M5484 7098 l-19 -23 23 19 c12 11 22 21 22 23 0 8 -8 2 -26 -19z"/>
<path d="M4240 7008 c41 -45 50 -53 50 -45 0 2 -21 23 -47 47 l-48 45 45 -47z"/>
<path d="M4961 7024 c0 -11 3 -14 6 -6 3 7 2 16 -1 19 -3 4 -6 -2 -5 -13z"/>
<path d="M4700 6967 c0 -2 15 -16 33 -33 l32 -29 -29 33 c-28 30 -36 37 -36
29z"/>
<path d="M4895 6950 c10 -11 20 -20 23 -20 3 0 -3 9 -13 20 -10 11 -20 20 -23
20 -3 0 3 -9 13 -20z"/>
<path d="M4114 6943 c16 -20 36 -23 36 -6 0 4 -3 3 -7 0 -3 -4 -16 1 -27 10
-21 18 -21 18 -2 -4z"/>
<path d="M4971 6944 c0 -11 3 -14 6 -6 3 7 2 16 -1 19 -3 4 -6 -2 -5 -13z"/>
<path d="M5112 6900 c0 -14 2 -19 5 -12 2 6 2 18 0 25 -3 6 -5 1 -5 -13z"/>
<path d="M6029 6903 c-12 -16 -12 -17 2 -6 9 7 20 9 24 5 5 -4 5 -1 1 6 -9 16
-11 15 -27 -5z"/>
<path d="M4165 6890 c10 -11 20 -20 23 -20 3 0 -3 9 -13 20 -10 11 -20 20 -23
20 -3 0 3 -9 13 -20z"/>
<path d="M4966 6868 c3 -4 9 -8 15 -8 5 0 9 4 9 8 0 5 -7 9 -15 9 -8 0 -12 -4
-9 -9z"/>
<path d="M4815 6840 c10 -11 20 -20 23 -20 3 0 -3 9 -13 20 -10 11 -20 20 -23
20 -3 0 3 -9 13 -20z"/>
<path d="M4220 6846 c0 -2 8 -10 18 -17 15 -13 16 -12 3 4 -13 16 -21 21 -21
13z"/>
<path d="M5964 6828 l-19 -23 23 19 c12 11 22 21 22 23 0 8 -8 2 -26 -19z"/>
<path d="M5122 6583 c-1 -146 2 -234 8 -238 6 -3 10 -2 10 4 0 6 6 8 13 6 13
-5 73 43 64 51 -3 3 -16 -5 -29 -18 -50 -50 -53 -42 -58 202 l-6 225 -2 -232z"/>
<path d="M5201 6794 c0 -11 3 -14 6 -6 3 7 2 16 -1 19 -3 4 -6 -2 -5 -13z"/>
<path d="M4605 6780 c-3 -6 1 -7 9 -4 18 7 21 14 7 14 -6 0 -13 -4 -16 -10z"/>
<path d="M4870 6776 c0 -2 8 -10 18 -17 15 -13 16 -12 3 4 -13 16 -21 21 -21
13z"/>
<path d="M5905 6751 c-3 -5 -2 -12 3 -15 5 -3 9 1 9 9 0 17 -3 19 -12 6z"/>
<path d="M6065 6752 c3 -3 -1 -12 -7 -21 -8 -10 -4 -9 10 3 26 23 26 23 7 23
-8 0 -13 -3 -10 -5z"/>
<path d="M4778 6743 c7 -3 16 -2 19 1 4 3 -2 6 -13 5 -11 0 -14 -3 -6 -6z"/>
<path d="M5191 6734 c0 -11 3 -14 6 -6 3 7 2 16 -1 19 -3 4 -6 -2 -5 -13z"/>
<path d="M5322 6700 c0 -14 2 -19 5 -12 2 6 2 18 0 25 -3 6 -5 1 -5 -13z"/>
<path d="M5295 6681 c-3 -5 -2 -12 3 -15 5 -3 9 1 9 9 0 17 -3 19 -12 6z"/>
<path d="M5805 6681 c-3 -6 -11 -9 -16 -6 -5 4 -9 1 -9 -4 0 -13 10 -14 30 -1
8 5 12 12 8 15 -3 4 -9 1 -13 -4z"/>
<path d="M5825 6661 c-3 -5 -2 -12 3 -15 5 -3 9 1 9 9 0 17 -3 19 -12 6z"/>
<path d="M4937 6609 c7 -7 15 -10 18 -7 3 3 -2 9 -12 12 -14 6 -15 5 -6 -5z"/>
<path d="M5640 6609 c-13 -9 -12 -10 2 -5 10 3 20 1 23 -4 4 -6 1 -10 -6 -10
-7 0 -10 -3 -6 -6 10 -11 26 6 20 21 -6 18 -13 18 -33 4z"/>
<path d="M4808 6603 c7 -3 16 -2 19 1 4 3 -2 6 -13 5 -11 0 -14 -3 -6 -6z"/>
<path d="M4878 6593 c7 -3 16 -2 19 1 4 3 -2 6 -13 5 -11 0 -14 -3 -6 -6z"/>
<path d="M4948 6583 c6 -2 18 -2 25 0 6 3 1 5 -13 5 -14 0 -19 -2 -12 -5z"/>
<path d="M5790 6579 c0 -5 5 -7 10 -4 6 3 10 8 10 11 0 2 -4 4 -10 4 -5 0 -10
-5 -10 -11z"/>
<path d="M4992 6108 c-1 -305 2 -486 8 -503 9 -23 8 -26 -5 -21 -13 5 -15 1
-10 -15 5 -16 4 -19 -5 -14 -9 5 -10 2 -5 -14 4 -14 2 -23 -9 -27 -8 -3 -13
-11 -10 -18 3 -7 -3 -19 -13 -27 -17 -13 -17 -13 -3 6 14 19 14 19 -3 6 -9 -8
-15 -16 -13 -19 3 -3 -4 -18 -15 -34 -12 -16 -24 -27 -27 -24 -2 3 1 13 9 23
8 10 1 7 -18 -7 -32 -23 -46 -39 -21 -24 7 5 8 3 4 -5 -5 -7 -14 -10 -22 -7
-19 7 -45 -4 -38 -15 3 -6 -5 -7 -22 -3 -18 5 -25 3 -20 -4 4 -7 -5 -9 -29 -5
-19 3 -35 2 -35 -3 0 -5 -73 -10 -162 -11 -146 -1 -182 -4 -212 -21 -5 -3 -6
0 -2 6 4 7 3 12 -2 12 -6 0 -13 -7 -16 -16 -3 -9 -13 -14 -20 -11 -15 6 -40
-16 -30 -25 2 -3 -9 -17 -26 -32 -17 -14 -28 -26 -23 -26 4 0 3 -4 -3 -8 -17
-11 -30 -57 -14 -47 9 6 11 4 4 -6 -11 -18 -14 -109 -3 -109 5 0 6 -6 3 -13
-3 -8 18 -37 46 -66 50 -51 93 -77 111 -65 5 3 9 0 9 -5 0 -8 88 -11 275 -11
151 0 275 4 275 8 0 5 14 6 31 4 20 -3 29 -1 26 5 -4 6 4 8 20 5 17 -3 24 -1
19 6 -7 12 25 25 45 17 8 -3 23 2 34 11 11 8 14 12 6 8 -9 -5 -12 -3 -7 5 4 6
13 10 20 9 6 -2 25 11 41 27 17 17 21 21 11 8 -33 -39 -13 -25 34 24 25 26 38
43 30 39 -8 -4 -4 2 10 14 14 12 18 19 10 15 -8 -4 -6 1 5 10 11 9 19 21 18
26 -2 5 2 9 9 9 6 0 9 3 6 6 -4 3 2 14 13 25 10 10 19 25 19 32 0 9 38 11 162
10 90 -2 165 -3 168 -4 3 -1 8 -1 12 -1 3 1 9 -5 12 -14 4 -10 2 -13 -6 -8 -7
5 -8 2 -3 -7 18 -32 48 -57 61 -52 8 3 16 -2 20 -10 3 -9 12 -13 21 -10 11 4
14 2 9 -5 -5 -8 11 -11 53 -9 33 0 57 5 55 9 -5 8 0 10 28 12 7 1 24 12 38 26
l25 26 -20 -25 -20 -26 23 20 c26 21 52 63 33 51 -7 -5 -7 2 0 24 6 16 15 27
20 24 5 -3 9 -1 9 5 0 5 -4 12 -9 15 -5 4 -5 21 2 41 9 30 8 37 -8 49 -11 8
-16 20 -12 29 3 9 -2 21 -11 29 -16 12 -16 11 -3 -7 8 -11 1 -7 -15 10 -16 16
-29 34 -29 40 0 5 -9 9 -19 7 -10 -2 -16 1 -13 6 3 4 -8 7 -26 5 -26 -3 -28
-1 -12 6 15 7 6 9 -33 8 -29 0 -48 -4 -41 -7 6 -5 0 -10 -16 -14 -14 -4 -30
-4 -35 -1 -5 3 -12 0 -16 -6 -5 -8 -3 -9 6 -4 9 6 11 4 6 -4 -5 -7 -14 -10
-21 -7 -8 3 -19 -3 -27 -12 -9 -11 -10 -14 0 -8 6 4 12 4 12 1 0 -10 -27 -35
-32 -30 -3 3 -4 -5 -4 -18 1 -12 -4 -21 -11 -20 -7 2 -13 -2 -13 -8 0 -7 -41
-10 -122 -8 -101 2 -124 5 -129 18 -8 22 1 52 14 44 6 -4 7 -1 3 6 -9 14 13
73 24 66 10 -6 22 24 14 36 -3 5 0 9 7 9 8 0 7 5 -2 17 -12 15 -12 16 4 10 11
-4 16 -3 12 3 -3 6 1 20 9 32 9 12 16 19 16 14 0 -5 7 -3 15 4 12 10 13 16 3
29 -7 9 -9 13 -4 9 5 -4 24 4 42 19 19 14 41 23 49 19 9 -3 13 -2 10 4 -4 6
11 8 37 6 33 -3 36 -2 13 3 -21 5 -2 9 65 12 125 5 210 0 210 -12 0 -6 -6 -7
-12 -3 -8 4 -10 3 -5 -2 5 -5 13 -10 18 -10 22 -3 23 -5 9 -15 -12 -8 -11 -9
5 -6 11 2 19 8 18 15 -2 6 4 9 12 6 8 -4 15 -10 15 -16 0 -5 -4 -7 -9 -4 -5 3
-15 -1 -22 -10 -10 -12 -10 -15 1 -12 8 2 14 -1 15 -7 1 -21 16 -34 32 -28 12
5 14 3 8 -7 -5 -9 -4 -11 4 -6 17 11 53 -3 44 -17 -5 -8 -2 -8 9 0 8 7 17 11
19 9 2 -2 24 -6 49 -9 33 -5 40 -3 25 4 -17 8 -17 9 7 6 15 -2 27 -1 26 2 0 3
0 14 1 24 1 17 2 17 17 3 20 -20 25 -20 17 1 -4 10 -2 14 5 9 12 -7 35 27 25
37 -3 4 4 5 15 2 16 -3 19 0 15 12 -4 9 -2 14 3 11 5 -4 10 4 11 15 4 69 9 97
15 97 3 0 9 -8 11 -17 4 -14 5 -12 6 5 0 12 -3 22 -8 22 -12 0 -34 67 -27 79
7 11 -13 9 -34 -3 -12 -7 -12 -6 -4 3 12 13 8 51 -5 51 -4 0 -12 -5 -19 -12
-8 -8 -15 -8 -26 1 -11 10 -18 6 -36 -19 -22 -30 -22 -31 -3 -36 20 -6 49 -64
31 -64 -5 0 -2 -7 6 -16 19 -18 21 -28 5 -18 -8 5 -10 -1 -7 -19 4 -20 1 -25
-13 -22 -10 2 -23 -3 -30 -11 -6 -8 -8 -14 -3 -14 5 0 2 -5 -6 -10 -33 -22
-120 -3 -120 25 0 5 9 0 20 -10 32 -29 29 -13 -4 18 -16 16 -26 22 -23 13 3
-8 3 -18 -2 -20 -4 -3 -8 0 -8 7 0 7 -4 24 -8 40 -4 15 -3 27 2 27 5 0 9 10 9
22 -1 13 5 23 12 23 15 0 44 34 37 45 -2 3 10 4 26 2 21 -3 34 1 44 14 14 19
11 34 -6 34 -5 0 -9 -10 -10 -22 -1 -22 -1 -22 -9 2 -7 21 -15 12 -11 -12 0
-4 -10 -3 -23 2 -18 6 -28 5 -36 -5 -8 -10 -8 -14 1 -17 7 -2 10 -9 8 -15 -2
-6 -13 0 -23 15 -11 14 -14 22 -8 18 16 -9 15 7 0 22 -9 9 -8 12 6 12 9 0 14
-4 11 -10 -3 -5 -1 -10 5 -10 7 0 10 6 7 14 -3 8 1 22 9 33 9 10 12 12 8 4 -4
-9 -2 -12 6 -9 18 6 24 25 8 25 -7 0 -23 3 -35 7 -15 5 -23 3 -23 -4 0 -6 5
-8 10 -5 6 3 10 -3 10 -14 0 -13 -6 -21 -17 -21 -16 0 -16 2 -3 11 13 9 13 10
-1 6 -9 -3 -22 0 -29 6 -10 10 -10 8 -1 -9 8 -18 8 -21 -5 -20 -9 0 -21 -8
-28 -19 -6 -11 -17 -25 -25 -31 -7 -6 -14 -24 -15 -41 l-1 -31 -110 -1 c-60
-1 -132 -4 -160 -6 -37 -3 -43 -2 -25 4 l25 9 -27 1 c-20 1 -28 -4 -28 -15 0
-13 -3 -14 -14 -5 -12 10 -14 8 -10 -11 2 -13 2 -18 -2 -11 -4 8 -13 9 -30 2
-33 -12 -43 -11 -24 2 13 9 13 10 0 6 -8 -2 -14 -10 -12 -17 2 -8 -3 -10 -15
-6 -9 4 -14 4 -10 0 8 -8 -11 -34 -25 -34 -6 0 -4 8 3 18 11 15 11 15 -1 4 -8
-7 -15 -18 -15 -25 -1 -7 -6 -11 -12 -10 -6 1 -21 -10 -34 -25 -13 -14 -16
-20 -6 -13 9 7 17 9 17 3 0 -11 -31 -39 -37 -34 -3 2 -8 0 -11 -4 -4 -4 -1 -4
7 1 9 5 12 3 9 -6 -3 -8 -10 -13 -16 -12 -5 1 -13 -4 -16 -13 -3 -8 -1 -12 4
-9 6 3 7 -1 4 -9 -3 -9 -11 -13 -17 -9 -5 3 -7 2 -4 -4 3 -5 8 -21 11 -36 4
-25 3 -26 -16 -16 -15 8 -19 8 -13 0 8 -14 -14 -83 -25 -76 -4 3 -6 -5 -3 -17
3 -17 2 -19 -5 -10 -7 11 -10 10 -16 -3 -8 -22 -8 -27 2 -21 4 2 8 -4 8 -14 0
-14 -4 -16 -12 -9 -9 8 -11 4 -7 -13 3 -16 2 -19 -4 -10 -7 9 -13 6 -22 -14
-11 -25 -11 -26 5 -13 16 13 16 12 4 -8 -8 -12 -17 -20 -21 -17 -4 2 -10 -3
-13 -12 -3 -8 -2 -12 4 -9 6 4 5 -5 -1 -19 -7 -14 -15 -23 -19 -21 -5 3 -11
-2 -14 -11 -4 -10 -2 -13 7 -9 6 4 1 -3 -13 -15 -14 -12 -19 -19 -12 -15 6 3
12 1 12 -4 0 -6 -6 -11 -14 -11 -7 0 -20 -8 -27 -17 -12 -14 -12 -16 1 -9 8 4
4 -2 -10 -15 -14 -12 -24 -25 -23 -30 2 -5 -3 -6 -11 -3 -8 3 -17 0 -22 -7 -5
-8 -3 -10 6 -4 9 5 11 4 6 -4 -4 -6 -14 -10 -21 -9 -8 2 -21 -6 -30 -17 -9
-11 -14 -14 -10 -7 8 16 -11 15 -27 -1 -7 -8 -21 -12 -32 -9 -14 4 -17 2 -11
-8 6 -10 4 -12 -8 -7 -10 4 -146 7 -303 7 l-285 1 -11 25 c-6 13 -14 24 -17
24 -16 0 -4 67 16 89 12 14 20 28 17 32 -2 4 6 5 18 2 14 -3 18 -1 11 4 -6 4
76 7 183 5 145 -3 194 -1 194 8 0 8 9 10 23 6 29 -7 69 3 61 16 -4 6 2 7 16 3
14 -4 20 -3 16 3 -7 11 21 25 35 16 5 -3 9 0 9 6 0 6 5 8 13 4 9 -6 9 -5 0 7
-13 16 -13 17 37 21 11 1 37 20 58 42 20 22 28 34 17 26 -17 -13 -16 -11 4 18
12 17 27 32 32 32 6 0 7 5 4 10 -3 6 -2 10 4 10 6 0 7 7 4 17 -5 12 -3 14 8 8
8 -4 11 -5 7 0 -4 4 0 14 8 23 9 8 13 23 11 33 -3 11 -1 19 5 19 6 0 8 13 4
33 -10 57 -8 442 2 440 6 -1 8 6 5 16 -2 10 1 37 7 61 9 32 14 40 21 29 5 -8
9 -9 9 -4 -1 15 -26 45 -33 38 -4 -3 -5 4 -2 15 4 23 -16 44 -23 24 -2 -7 -14
-12 -26 -12 -20 0 -24 -8 -34 -57 l-10 -58 1 47 c1 25 -1 44 -5 42 -4 -3 -9
91 -11 208 -1 119 -4 -2 -7 -272 l-5 -485 -5 485 -5 485 -3 -477z m1029 -255
c13 -16 12 -17 -3 -4 -10 7 -18 15 -18 17 0 8 8 3 21 -13z m246 4 c0 -8 -6
-14 -14 -14 -9 0 -10 4 -2 14 6 7 12 13 14 13 1 0 2 -6 2 -13z m-11 -59 c4 -7
4 -10 -1 -6 -4 4 -17 3 -29 -3 -20 -10 -20 -10 -2 5 24 19 23 19 32 4z m14
-31 c0 -2 -10 -12 -22 -23 l-23 -19 19 23 c18 21 26 27 26 19z m-400 -22 c-7
-9 -15 -13 -19 -10 -3 3 1 10 9 15 21 14 24 12 10 -5z m-220 1 c0 -2 -9 -6
-20 -9 -11 -3 -18 -1 -14 4 5 9 34 13 34 5z m140 -11 c4 3 14 -3 21 -13 11
-14 11 -15 -1 -5 -8 8 -18 9 -25 3 -7 -6 -11 -2 -12 13 0 12 1 16 4 9 3 -6 8
-10 13 -7z m390 -30 c5 3 12 0 16 -7 4 -7 4 -10 -1 -6 -4 4 -14 0 -22 -10 -12
-16 -13 -16 -7 1 4 10 1 17 -6 17 -6 0 -8 5 -4 12 6 9 9 9 12 0 2 -7 8 -10 12
-7z m-720 -35 c-12 -8 -12 -10 -1 -10 8 0 12 -3 8 -6 -9 -9 -28 6 -22 17 4 5
12 9 18 9 7 0 6 -4 -3 -10z m533 -25 c-3 -9 -8 -14 -10 -11 -3 3 -2 9 2 15 9
16 15 13 8 -4z m-503 -30 c0 -12 -19 -12 -23 0 -4 9 -1 12 9 8 7 -3 14 -7 14
-8z m-399 -108 c-10 -9 -11 -8 -5 6 3 10 9 15 12 12 3 -3 0 -11 -7 -18z m732
-124 c-7 -2 -19 -2 -25 0 -7 3 -2 5 12 5 14 0 19 -2 13 -5z m44 -30 c10 -10
17 -25 15 -33 -3 -7 0 -10 6 -6 15 9 21 -15 10 -44 -14 -37 -38 -59 -56 -53
-8 4 -13 2 -9 -3 3 -6 -5 -10 -19 -10 -13 0 -24 4 -24 9 0 4 -9 6 -19 2 -14
-4 -23 0 -31 15 -6 11 -8 20 -5 20 4 0 3 6 -2 13 -4 6 -6 20 -4 31 1 11 -2 16
-8 12 -7 -4 -8 -1 -5 8 3 9 11 13 17 9 6 -4 8 0 4 10 -3 9 1 21 11 29 15 11
16 11 7 -3 -9 -14 -9 -14 4 0 20 22 83 19 108 -6z m-867 4 c0 -2 -10 -12 -22
-23 l-23 -19 19 23 c18 21 26 27 26 19z m-730 -57 c0 -5 -5 -10 -11 -10 -5 0
-7 5 -4 10 3 6 8 10 11 10 2 0 4 -4 4 -10z m535 -50 c-3 -5 -12 -10 -18 -10
-7 0 -6 4 3 10 19 12 23 12 15 0z m886 -97 c13 -16 12 -17 -3 -4 -10 7 -18 15
-18 17 0 8 8 3 21 -13z m-1168 -130 c-23 -2 -64 -2 -90 0 -26 2 -7 3 42 3 50
0 71 -1 48 -3z m260 0 c-13 -2 -33 -2 -45 0 -13 2 -3 4 22 4 25 0 35 -2 23 -4z
m90 0 c-7 -2 -19 -2 -25 0 -7 3 -2 5 12 5 14 0 19 -2 13 -5z m-410 -110 c-13
-2 -35 -2 -50 0 -16 2 -5 4 22 4 28 0 40 -2 28 -4z m370 0 c-35 -2 -91 -2
-125 0 -35 2 -7 3 62 3 69 0 97 -1 63 -3z"/>
<path d="M5859 5233 c-13 -16 -12 -17 4 -4 16 13 21 21 13 21 -2 0 -10 -8 -17
-17z"/>
<path d="M5719 6539 l-24 -20 28 17 c15 9 27 18 27 20 0 8 -8 4 -31 -17z"/>
<path d="M5280 6546 c0 -2 8 -10 18 -17 15 -13 16 -12 3 4 -13 16 -21 21 -21
13z"/>
<path d="M5330 6510 c-13 -9 -13 -10 0 -10 13 0 13 -1 0 -10 -8 -5 -10 -10 -5
-10 6 0 17 5 25 10 11 7 11 10 2 10 -7 0 -10 5 -7 10 8 12 4 12 -15 0z"/>
<path d="M5606 6505 c4 -8 11 -15 16 -15 6 0 5 6 -2 15 -7 8 -14 15 -16 15 -2
0 -1 -7 2 -15z"/>
<path d="M5650 6510 c0 -5 7 -7 15 -4 8 4 15 8 15 10 0 2 -7 4 -15 4 -8 0 -15
-4 -15 -10z"/>
<path d="M5398 6503 c6 -2 9 -10 6 -15 -4 -7 -2 -8 5 -4 13 9 5 26 -12 25 -9
0 -8 -2 1 -6z"/>
<path d="M5103 6420 c0 -36 2 -50 4 -32 2 17 2 47 0 65 -2 17 -4 3 -4 -33z"/>
<path d="M5446 6463 c-6 -14 -5 -15 5 -6 7 7 10 15 7 18 -3 3 -9 -2 -12 -12z"/>
<path d="M5484 6460 c-12 -5 -25 -14 -29 -20 -4 -7 7 -4 24 4 17 9 31 19 31
21 0 6 1 6 -26 -5z"/>
<path d="M5364 6425 c1 -30 9 -39 12 -14 3 22 5 23 13 11 6 -10 10 -10 21 3
11 13 10 15 -2 10 -9 -4 -22 0 -30 9 -13 12 -15 10 -14 -19z"/>
<path d="M5071 6384 c0 -11 3 -14 6 -6 3 7 2 16 -1 19 -3 4 -6 -2 -5 -13z"/>
<path d="M5293 6368 c-15 -17 -15 -18 1 -18 10 0 14 -5 10 -12 -4 -7 -3 -8 5
-4 9 6 9 11 1 21 -7 8 -7 15 -1 19 5 3 11 1 13 -6 3 -8 6 -7 10 3 8 22 -18 20
-39 -3z"/>
<path d="M5052 6340 c0 -14 2 -19 5 -12 2 6 2 18 0 25 -3 6 -5 1 -5 -13z"/>
<path d="M5186 6343 c-6 -14 -5 -15 5 -6 7 7 10 15 7 18 -3 3 -9 -2 -12 -12z"/>
<path d="M5243 6300 c1 -18 3 -18 19 -3 22 20 22 18 -1 20 -14 1 -19 -4 -18
-17z"/>
<path d="M5213 6283 c-16 -6 -17 -29 -1 -39 7 -4 8 -3 4 5 -4 6 -2 18 4 26 13
16 12 16 -7 8z"/>
<path d="M5121 6233 c-1 -6 4 -15 9 -18 6 -3 10 -15 10 -26 0 -23 15 -25 24
-3 9 22 8 24 -11 24 -15 0 -16 2 -3 10 8 5 17 6 20 2 10 -14 29 -12 24 2 -5
14 -33 14 -53 2 -5 -4 -12 0 -14 6 -4 9 -6 10 -6 1z"/>
<path d="M5124 5815 c0 -110 2 -156 3 -103 2 53 2 143 0 200 -1 57 -3 13 -3
-97z"/>
<path d="M6048 5993 c7 -3 16 -2 19 1 4 3 -2 6 -13 5 -11 0 -14 -3 -6 -6z"/>
<path d="M6110 5983 c0 -9 -3 -14 -6 -11 -6 7 -54 -39 -54 -52 0 -6 7 -10 15
-10 8 0 15 5 15 11 0 5 -6 7 -12 3 -7 -4 -4 2 7 13 11 11 22 16 23 12 2 -5 8
-9 13 -9 4 0 6 6 4 13 -3 7 4 12 19 12 22 0 23 -2 10 -16 -12 -14 -13 -18 -2
-21 11 -4 10 -8 -1 -22 -8 -9 -11 -19 -8 -22 8 -8 29 35 22 46 -7 11 36 10 51
-2 7 -5 16 -3 23 6 9 10 8 16 -4 26 -9 8 -15 9 -13 4 6 -18 -7 -18 -32 -1 -13
9 -18 17 -11 17 8 0 11 3 8 6 -4 4 -13 1 -21 -5 -8 -7 -21 -9 -27 -5 -9 5 -7
10 7 15 17 7 17 8 -3 8 -15 1 -23 -5 -23 -16z"/>
<path d="M5833 5683 c9 -2 25 -2 35 0 9 3 1 5 -18 5 -19 0 -27 -2 -17 -5z"/>
<path d="M5545 5660 c-3 -6 1 -7 9 -4 18 7 21 14 7 14 -6 0 -13 -4 -16 -10z"/>
<path d="M5300 5561 c0 -6 4 -13 10 -16 6 -3 7 1 4 9 -7 18 -14 21 -14 7z"/>
<path d="M4209 5263 c-13 -16 -12 -17 4 -4 16 13 21 21 13 21 -2 0 -10 -8 -17
-17z"/>
<path d="M4225 4970 c10 -11 20 -20 23 -20 3 0 -3 9 -13 20 -10 11 -20 20 -23
20 -3 0 3 -9 13 -20z"/>
<path d="M7638 4313 c7 -3 16 -2 19 1 4 3 -2 6 -13 5 -11 0 -14 -3 -6 -6z"/>
<path d="M2308 4303 c39 -2 105 -2 145 0 39 1 7 3 -73 3 -80 0 -112 -2 -72 -3z"/>
<path d="M2938 4303 c18 -2 45 -2 60 0 15 2 0 4 -33 4 -33 0 -45 -2 -27 -4z"/>
<path d="M3848 4303 c18 -2 45 -2 60 0 15 2 0 4 -33 4 -33 0 -45 -2 -27 -4z"/>
<path d="M4433 4303 c15 -2 37 -2 50 0 12 2 0 4 -28 4 -27 0 -38 -2 -22 -4z"/>
<path d="M4520 4303 c8 -3 22 -11 30 -17 13 -10 13 -9 1 7 -7 9 -21 17 -30 16
-13 0 -14 -1 -1 -6z"/>
<path d="M4963 4303 c15 -2 39 -2 55 0 15 2 2 4 -28 4 -30 0 -43 -2 -27 -4z"/>
<path d="M5050 3940 l-5 -375 -5 280 c-3 154 -7 237 -9 185 -2 -52 -3 -108 -2
-124 2 -16 -1 -45 -4 -65 l-8 -36 -12 35 c-12 31 -14 32 -14 10 -2 -56 -18
-50 -25 9 -4 33 -11 63 -16 66 -15 9 -12 -128 3 -144 10 -11 10 -13 0 -7 -8 5
-13 1 -13 -9 0 -9 4 -14 8 -11 4 2 8 -4 9 -14 1 -11 -3 -23 -9 -26 -7 -5 -8
-2 -3 6 4 7 2 16 -6 21 -22 14 -33 10 -19 -6 15 -18 0 -20 -19 -2 -11 10 -13
9 -8 -6 4 -10 3 -16 -2 -12 -6 3 -9 14 -8 25 1 10 4 17 8 14 6 -3 6 12 0 34
-1 1 -10 -2 -21 -8 -11 -6 -18 -16 -14 -22 4 -5 -5 -2 -20 7 -14 10 -25 25
-24 34 2 10 -5 16 -21 17 -22 1 -23 0 -7 -11 10 -8 13 -16 7 -19 -14 -9 -26
14 -26 48 0 16 -6 31 -14 34 -10 3 -11 0 -5 -9 12 -19 14 -39 4 -39 -5 0 -12
9 -15 20 -3 11 -11 20 -16 20 -11 0 -4 -15 19 -42 8 -10 12 -24 9 -32 -4 -9
-1 -18 5 -22 6 -4 8 -3 4 4 -3 6 -1 14 5 17 7 5 10 -1 9 -16 -3 -38 -1 -40 20
-29 11 6 18 16 14 22 -4 7 -9 6 -15 -3 -6 -10 -9 -10 -9 -2 0 20 19 25 36 9 8
-9 11 -16 5 -16 -18 0 -12 -18 7 -23 9 -3 6 -5 -8 -4 -14 1 -26 -1 -27 -5 -2
-5 -1 -7 1 -5 2 1 13 -7 25 -17 16 -15 18 -22 10 -33 -11 -12 -5 -17 15 -14 5
1 6 -6 2 -15 -4 -11 0 -18 14 -21 19 -5 22 -10 24 -43 1 -12 17 -15 84 -15 45
0 82 -3 82 -7 0 -4 -35 -9 -77 -11 l-78 -3 78 -2 c55 -1 79 2 82 11 3 6 4 183
2 392 l-2 380 -5 -375z m-189 -273 c-10 -9 -11 -8 -5 6 3 10 9 15 12 12 3 -3
0 -11 -7 -18z"/>
<path d="M5388 4303 c78 -2 206 -2 285 0 78 1 14 3 -143 3 -157 0 -221 -2
-142 -3z"/>
<path d="M5995 3920 l0 -385 65 -1 65 0 -62 3 -63 4 -3 382 -2 382 0 -385z"/>
<path d="M6038 4303 c18 -2 45 -2 60 0 15 2 0 4 -33 4 -33 0 -45 -2 -27 -4z"/>
<path d="M6345 3920 l0 -385 65 0 65 0 0 265 0 265 -2 -262 -3 -263 -60 0 -60
0 -3 383 -2 382 0 -385z"/>
<path d="M6387 4303 c18 -2 50 -2 70 0 21 2 7 4 -32 4 -38 0 -55 -2 -38 -4z"/>
<path d="M6866 4302 c-2 -4 12 -6 32 -4 62 6 69 10 20 11 -26 0 -49 -3 -52 -7z"/>
<path d="M6978 4303 c9 -4 11 -86 10 -371 l-3 -367 -5 290 c-3 160 -6 259 -8
222 -2 -69 -26 -142 -43 -131 -5 3 -9 -7 -10 -23 -1 -22 -4 -17 -14 20 -7 27
-16 51 -19 55 -3 3 -6 -53 -6 -125 0 -104 -3 -133 -15 -143 -12 -10 -15 -10
-15 0 0 7 -7 10 -17 6 -15 -6 -15 -4 2 14 17 18 14 25 -9 21 -5 -1 -6 5 -3 13
4 9 1 15 -5 13 -15 -3 -60 64 -53 80 2 8 0 11 -5 8 -6 -3 -11 -1 -11 4 -1 6
-2 17 -3 24 -1 6 -10 10 -21 9 -17 -3 -17 -2 -5 15 8 10 10 15 6 11 -5 -4 -16
-2 -24 5 -13 10 -14 9 -7 -2 5 -9 4 -12 -3 -7 -15 9 -3 38 12 29 6 -3 7 -2 3
3 -5 5 -16 9 -25 9 -9 0 -16 6 -14 13 1 6 -3 12 -9 12 -8 0 -8 4 0 13 8 10 7
14 -3 14 -16 0 -13 -31 4 -51 5 -7 6 -16 2 -20 -4 -4 -7 -13 -7 -18 0 -6 -6
-13 -14 -16 -9 -3 -11 0 -6 9 5 8 5 11 0 7 -9 -9 -35 9 -35 24 0 7 5 7 13 0 8
-7 18 -7 27 -2 11 7 12 10 2 10 -7 0 -10 4 -7 10 4 7 -3 7 -20 0 -31 -12 -45
-6 -45 20 0 10 -4 21 -9 24 -14 9 0 -37 17 -56 8 -10 12 -24 9 -32 -4 -9 -1
-18 5 -22 6 -4 8 -3 4 4 -3 6 -1 14 5 18 8 5 10 -1 7 -19 -3 -16 -1 -25 6 -24
6 1 11 -7 11 -17 0 -11 8 -20 18 -22 9 -1 26 -13 36 -26 11 -12 22 -20 26 -17
3 4 -8 23 -25 43 -18 20 -27 36 -21 36 5 0 22 -17 36 -37 14 -21 25 -32 25
-25 0 6 7 12 16 12 14 0 14 3 4 15 -11 13 -15 13 -21 3 -7 -11 -9 -11 -9 0 0
23 -27 42 -59 42 -17 0 -31 4 -31 9 0 4 15 7 33 5 23 -3 28 -1 17 6 -8 5 -10
10 -5 10 12 0 43 -20 32 -20 -5 0 -1 -7 7 -16 9 -8 19 -13 24 -10 4 2 12 -6
18 -19 10 -20 8 -26 -18 -45 -22 -16 -32 -19 -43 -10 -10 8 -15 8 -21 -1 -5
-8 -3 -9 6 -4 10 6 12 4 7 -8 -7 -18 8 -33 18 -17 11 18 26 0 16 -19 -9 -15
-6 -17 19 -16 16 1 27 -2 24 -7 -4 -5 -12 -7 -18 -5 -7 3 -13 -1 -13 -8 0 -8
5 -13 11 -12 6 1 11 -7 11 -18 0 -11 7 -20 15 -20 8 0 21 -13 30 -30 8 -16 19
-33 24 -36 4 -4 2 -9 -5 -12 -10 -4 -9 -6 4 -7 9 -2 21 -3 26 -4 5 0 13 -5 18
-10 4 -5 3 -6 -3 -3 -17 10 -25 -30 -9 -43 8 -6 43 -10 82 -8 l68 3 3 388 c2
364 1 387 -15 386 -11 0 -13 -3 -5 -6z m-187 -570 c12 -16 12 -17 -2 -6 -9 7
-20 9 -24 5 -5 -4 -5 -1 -1 6 9 16 11 15 27 -5z m-11 -17 c0 -2 -7 -9 -15 -16
-13 -11 -14 -10 -9 4 5 14 24 23 24 12z m210 -168 c0 -5 -31 -8 -69 -8 -39 0
-72 3 -74 8 -3 4 28 7 69 7 41 0 74 -3 74 -7z"/>
<path d="M6360 4270 c0 -11 2 -20 4 -20 2 0 6 9 9 20 3 11 1 20 -4 20 -5 0 -9
-9 -9 -20z"/>
<path d="M7374 4283 c12 -22 43 -34 43 -18 0 8 -4 12 -9 9 -5 -3 -16 0 -25 8
-12 9 -15 9 -9 1z"/>
<path d="M7699 4288 c-5 -19 -8 -50 -4 -46 7 7 15 48 9 48 -2 0 -4 -1 -5 -2z"/>
<path d="M7438 4263 c7 -3 16 -2 19 1 4 3 -2 6 -13 5 -11 0 -14 -3 -6 -6z"/>
<path d="M3926 4248 c3 -5 10 -6 15 -3 13 9 11 12 -6 12 -8 0 -12 -4 -9 -9z"/>
<path d="M6973 4205 c0 -33 2 -45 4 -27 2 18 2 45 0 60 -2 15 -4 0 -4 -33z"/>
<path d="M7345 4249 c-4 -6 -5 -12 -2 -15 2 -3 7 2 10 11 7 17 1 20 -8 4z"/>
<path d="M7503 4237 c0 -7 9 -14 20 -14 11 -1 18 -1 16 0 -2 2 -11 8 -20 15
-12 9 -16 9 -16 -1z"/>
<path d="M6362 3898 l-2 -348 50 0 51 0 -1 236 c-1 170 -4 234 -12 226 -8 -8
-18 -8 -32 -1 -19 9 -20 9 -3 -4 14 -12 17 -29 15 -103 -1 -87 -2 -87 -8 -29
-5 42 -7 50 -9 25 l-2 -35 -17 30 c-13 23 -18 65 -22 190 -5 120 -6 73 -8
-187z m85 -35 c-2 -27 -3 -5 -3 47 0 52 1 74 3 48 2 -27 2 -69 0 -95z"/>
<path d="M7659 4235 c-1 -3 -2 -10 -3 -15 0 -6 -8 -15 -16 -20 -9 -6 -10 -10
-3 -10 6 0 14 4 17 9 3 4 17 7 30 6 18 -2 23 1 19 11 -4 11 -9 12 -19 3 -13
-10 -18 -6 -15 14 1 8 -8 10 -10 2z"/>
<path d="M7780 4225 c-11 -13 -11 -16 0 -13 7 2 14 -2 17 -9 3 -7 -3 -11 -15
-8 -16 3 -18 -1 -14 -23 l6 -27 7 25 c6 21 7 22 9 5 1 -16 3 -15 12 8 5 15 14
24 19 21 6 -3 5 -11 -2 -20 -6 -8 -9 -17 -5 -21 3 -3 6 -1 6 6 0 7 5 9 10 6 6
-3 8 -17 6 -31 -5 -28 14 -32 38 -8 19 18 20 25 5 22 -6 -2 -14 3 -17 11 -3 9
0 11 8 6 9 -6 11 -4 6 4 -5 7 -11 10 -14 6 -3 -3 -20 8 -37 25 -29 28 -33 29
-45 15z m84 -86 c-3 -5 -10 -7 -15 -3 -5 3 -7 10 -3 15 3 5 10 7 15 3 5 -3 7
-10 3 -15z"/>
<path d="M7820 4236 c0 -2 8 -10 18 -17 15 -13 16 -12 3 4 -13 16 -21 21 -21
13z"/>
<path d="M7327 4219 c7 -7 15 -10 18 -7 3 3 -2 9 -12 12 -14 6 -15 5 -6 -5z"/>
<path d="M7416 4213 c-6 -14 -5 -15 5 -6 7 7 10 15 7 18 -3 3 -9 -2 -12 -12z"/>
<path d="M7588 4223 c6 -2 18 -2 25 0 6 3 1 5 -13 5 -14 0 -19 -2 -12 -5z"/>
<path d="M5778 4213 c7 -3 16 -2 19 1 4 3 -2 6 -13 5 -11 0 -14 -3 -6 -6z"/>
<path d="M7724 4212 c3 -6 2 -13 -3 -16 -5 -4 -8 -13 -7 -21 3 -21 37 -56 48
-49 5 3 8 -2 6 -11 -2 -12 5 -19 22 -21 21 -3 22 -2 7 7 -9 6 -15 14 -12 20 4
5 1 10 -4 10 -39 5 -37 3 -29 39 2 10 -3 14 -16 12 -17 -3 -18 -1 -7 11 9 12
9 17 0 23 -7 4 -9 3 -5 -4z m20 -47 c-4 -8 -11 -12 -16 -9 -6 4 -5 10 3 15 19
12 19 11 13 -6z"/>
<path d="M7377 4196 c-3 -8 -16 -16 -29 -19 l-23 -4 23 -2 c20 -1 27 -12 22
-36 -1 -5 7 -1 18 8 21 19 23 40 5 58 -7 7 -12 6 -16 -5z m13 -16 c-11 -7 -11
-10 -2 -10 7 0 10 -5 6 -11 -4 -8 -9 -7 -15 2 -9 15 -3 29 14 29 7 0 6 -4 -3
-10z"/>
<path d="M7528 4203 c18 -2 45 -2 60 0 15 2 0 4 -33 4 -33 0 -45 -2 -27 -4z"/>
<path d="M5485 4190 c-3 -5 -2 -10 4 -10 5 0 13 5 16 10 3 6 2 10 -4 10 -5 0
-13 -4 -16 -10z"/>
<path d="M6533 4185 c0 -8 5 -11 10 -8 6 4 8 0 5 -9 -4 -8 -1 -15 6 -15 6 0
12 8 12 18 0 10 -2 16 -5 14 -2 -3 -9 0 -16 5 -8 7 -12 5 -12 -5z"/>
<path d="M7280 4190 c8 -5 20 -10 25 -10 6 0 3 5 -5 10 -8 5 -19 10 -25 10 -5
0 -3 -5 5 -10z"/>
<path d="M2536 4171 c-3 -5 2 -15 12 -22 15 -12 16 -12 5 2 -7 9 -10 19 -6 22
3 4 4 7 0 7 -3 0 -8 -4 -11 -9z"/>
<path d="M5465 3855 l0 -320 70 -1 70 -1 -60 7 -60 7 58 1 57 2 -2 313 -3 312
-5 -310 -5 -310 -5 265 c-3 190 -5 237 -9 165 -4 -66 -8 -92 -13 -75 -4 14 -8
39 -9 55 -1 29 -1 30 -9 5 l-8 -25 -1 28 c-1 15 -5 27 -11 27 -6 0 -11 -35
-11 -82 l-1 -83 -9 60 c-5 33 -8 108 -7 168 2 59 0 107 -5 107 -4 0 -7 -134
-7 -297 0 -164 -1 -307 -2 -318 -1 -11 -5 124 -8 300 l-6 320 1 -320z"/>
<path d="M7303 4157 c-4 -7 -8 -22 -8 -35 0 -13 -7 -27 -15 -32 -12 -8 -12
-10 -1 -10 7 0 11 -6 8 -15 -10 -25 9 -25 23 0 11 20 11 27 0 40 -12 14 -11
18 1 26 10 6 11 9 1 9 -7 0 -11 4 -7 10 3 5 12 7 20 3 8 -3 15 -3 15 0 0 12
-30 15 -37 4z m7 -73 c0 -8 -5 -12 -10 -9 -6 4 -8 11 -5 16 9 14 15 11 15 -7z"/>
<path d="M7340 4140 c-9 -6 -10 -10 -3 -10 6 0 15 5 18 10 8 12 4 12 -15 0z"/>
<path d="M2711 4114 c0 -11 3 -14 6 -6 3 7 2 16 -1 19 -3 4 -6 -2 -5 -13z"/>
<path d="M6595 4119 c-4 -6 -5 -12 -2 -15 2 -3 7 2 10 11 7 17 1 20 -8 4z"/>
<path d="M7226 4113 c-6 -14 -5 -15 5 -6 7 7 10 15 7 18 -3 3 -9 -2 -12 -12z"/>
<path d="M7253 4108 c0 -13 1 -17 4 -10 3 6 10 9 16 5 7 -4 6 1 -2 10 -17 21
-17 21 -18 -5z"/>
<path d="M4644 4112 c4 -3 14 -7 22 -8 9 -1 13 0 10 4 -4 3 -14 7 -22 8 -9 1
-13 0 -10 -4z"/>
<path d="M6501 4103 c7 -10 15 -20 16 -22 2 -2 3 3 3 11 0 9 -7 19 -16 22 -15
6 -15 4 -3 -11z"/>
<path d="M4522 3822 l-2 -284 -64 4 c-35 1 -62 0 -59 -4 8 -14 123 -9 128 5 3
7 4 136 2 287 l-2 275 -3 -283z"/>
<path d="M6540 4081 c0 -11 4 -22 9 -25 4 -3 6 6 3 19 -5 30 -12 33 -12 6z"/>
<path d="M6430 4079 c0 -5 5 -7 10 -4 6 3 10 8 10 11 0 2 -4 4 -10 4 -5 0 -10
-5 -10 -11z"/>
<path d="M6470 4086 c0 -2 7 -7 16 -10 8 -3 12 -2 9 4 -6 10 -25 14 -25 6z"/>
<path d="M6011 3817 l-1 -268 60 2 c57 2 76 11 48 22 -10 4 -10 6 0 6 8 1 12
20 12 64 0 44 -3 58 -10 47 -6 -10 -10 50 -12 180 -1 107 -4 162 -5 122 -4
-67 -5 -73 -23 -67 -13 4 -21 1 -22 -7 -1 -7 -4 16 -8 52 l-7 65 -3 -85 -3
-85 -12 110 c-12 110 -12 109 -14 -158z"/>
<path d="M3740 4050 c-6 -11 -8 -20 -6 -20 3 0 10 9 16 20 6 11 8 20 6 20 -3
0 -10 -9 -16 -20z"/>
<path d="M3803 4055 c0 -8 4 -12 9 -9 5 3 6 10 3 15 -9 13 -12 11 -12 -6z"/>
<path d="M4600 4066 c0 -2 8 -10 18 -17 15 -13 16 -12 3 4 -13 16 -21 21 -21
13z"/>
<path d="M6505 4060 c-4 -6 -1 -9 7 -8 7 2 12 -5 11 -16 -1 -11 2 -15 8 -9 11
11 2 43 -11 43 -5 0 -12 -5 -15 -10z"/>
<path d="M4496 4043 c-6 -14 -5 -15 5 -6 7 7 10 15 7 18 -3 3 -9 -2 -12 -12z"/>
<path d="M4586 4046 c3 -8 13 -17 22 -21 13 -5 13 -2 -3 15 -21 24 -26 25 -19
6z"/>
<path d="M6440 4051 c0 -5 5 -13 10 -16 6 -3 10 -2 10 4 0 5 -4 13 -10 16 -5
3 -10 2 -10 -4z"/>
<path d="M4015 4040 c-3 -5 -3 -10 2 -10 4 0 1 -5 -7 -11 -12 -8 -12 -10 -1
-7 8 2 15 12 17 21 3 19 -2 22 -11 7z"/>
<path d="M6420 4030 c0 -5 5 -10 11 -10 5 0 7 5 4 10 -3 6 -8 10 -11 10 -2 0
-4 -4 -4 -10z"/>
<path d="M3704 4015 c-3 -8 -4 -20 -2 -27 3 -7 7 -1 10 15 6 29 1 36 -8 12z"/>
<path d="M7193 4008 c2 -15 0 -25 -4 -22 -10 6 -9 -111 2 -127 4 -6 3 -25 -2
-42 -5 -16 -6 -27 -2 -24 3 3 13 -4 23 -16 14 -16 16 -27 8 -41 -8 -14 -7 -17
3 -11 9 6 11 3 6 -9 -5 -11 -3 -15 5 -10 8 5 9 2 5 -9 -6 -16 8 -32 28 -32 6
0 10 -9 10 -20 0 -14 6 -20 23 -19 12 1 22 -1 22 -5 0 -3 10 -17 21 -31 11
-14 17 -19 13 -11 -4 9 -2 12 7 9 8 -3 13 -11 11 -17 -1 -7 2 -10 8 -6 14 9
52 -4 45 -16 -3 -5 1 -6 9 -3 9 3 24 3 34 -1 9 -5 27 -7 40 -6 12 1 22 -2 22
-8 0 -6 17 -10 38 -10 l37 2 -35 8 c-25 6 -12 7 45 5 44 -2 67 -1 50 3 -29 7
-29 7 15 15 25 4 55 9 67 9 12 1 21 6 20 11 -1 5 4 11 12 14 9 3 11 0 6 -8 -5
-9 -4 -11 4 -6 7 4 11 17 9 29 -2 12 2 22 9 22 6 0 15 3 19 8 18 18 25 5 8
-15 -11 -14 -6 -11 13 6 17 15 29 34 27 41 -3 7 0 16 7 21 8 5 10 3 4 -6 -5
-8 -4 -11 3 -6 6 4 8 14 5 23 -5 12 -3 14 7 8 8 -5 11 -4 6 3 -4 6 -4 23 0 37
4 15 9 22 13 17 3 -6 5 24 3 66 -2 42 -5 78 -6 79 -1 2 -71 4 -154 5 l-152 3
0 -43 0 -42 98 4 c68 3 81 2 42 -3 l-55 -8 53 -1 c46 -2 52 -4 53 -24 1 -22 1
-22 8 2 7 24 8 24 12 -7 3 -18 2 -30 -3 -27 -4 3 -8 0 -8 -5 0 -20 -2 -26 -11
-38 -7 -7 -6 -12 3 -15 8 -3 6 -7 -6 -11 -10 -4 -15 -3 -11 3 3 6 1 10 -5 10
-6 0 -8 6 -4 13 4 6 -5 1 -19 -12 -19 -17 -24 -28 -17 -36 10 -12 6 -14 -44
-18 -17 -1 -23 -7 -21 -19 2 -10 -2 -21 -8 -24 -7 -4 -9 -4 -5 1 9 10 -10 35
-26 35 -6 0 -4 -5 4 -11 12 -9 11 -10 -7 -6 -13 3 -26 1 -29 -4 -3 -5 -11 -9
-17 -9 -7 0 -6 4 3 10 11 7 4 10 -25 10 -31 0 -37 -3 -25 -11 11 -7 6 -8 -20
-3 -54 10 -80 22 -80 36 0 9 -3 8 -10 -2 -7 -11 -10 -11 -10 -2 0 8 -5 10 -12
6 -8 -5 -9 -2 -5 10 4 9 3 15 -2 12 -5 -3 -14 1 -21 9 -13 16 -35 21 -25 6 3
-5 2 -12 -3 -15 -4 -2 -8 8 -7 24 0 17 4 26 10 22 6 -4 0 3 -13 14 -16 15 -22
26 -16 35 6 10 3 10 -11 -1 -17 -14 -18 -14 -7 7 17 30 15 41 -3 17 -13 -17
-14 -16 -5 15 5 19 7 37 5 40 -3 2 -5 -2 -6 -10 -2 -26 -17 36 -18 74 -1 28 2
36 12 31 9 -5 9 -4 0 6 -7 8 -8 22 -3 41 5 17 5 29 -1 29 -5 0 -9 -3 -9 -7 0
-12 -74 -10 -83 2 -5 6 -7 -2 -4 -17z m51 -23 c-4 -8 -10 -15 -14 -15 -4 0
-10 7 -14 15 -4 10 1 15 14 15 13 0 18 -5 14 -15z m591 -264 c3 -5 2 -12 -3
-15 -5 -3 -9 1 -9 9 0 17 3 19 12 6z m-533 -22 c2 -2 1 -3 -1 -2 -2 2 -9 -2
-16 -7 -8 -7 -12 -5 -12 4 0 12 22 16 29 5z m468 7 c0 -2 -8 -10 -17 -17 -16
-13 -17 -12 -4 4 13 16 21 21 21 13z m-410 -62 c0 -2 -9 0 -20 6 -11 6 -20 13
-20 16 0 2 9 0 20 -6 11 -6 20 -13 20 -16z m448 11 c3 -3 -4 -4 -16 -2 -12 2
-24 6 -28 10 -4 3 4 4 16 2 12 -2 25 -7 28 -10z m-493 -13 c-3 -3 -11 0 -18 7
-9 10 -8 11 6 5 10 -3 15 -9 12 -12z m549 6 c-3 -4 -11 -5 -19 -1 -21 7 -19
12 4 10 11 0 18 -5 15 -9z m-137 -24 c-3 -3 -12 -4 -19 -1 -8 3 -5 6 6 6 11 1
17 -2 13 -5z m-207 -58 c0 -2 -7 -7 -16 -10 -8 -3 -12 -2 -9 4 6 10 25 14 25
6z"/>
<path d="M2711 4004 c0 -11 3 -14 6 -6 3 7 2 16 -1 19 -3 4 -6 -2 -5 -13z"/>
<path d="M3961 3998 c-7 -13 -10 -20 -6 -15 5 4 19 0 32 -8 13 -9 23 -11 23
-5 0 5 -5 10 -11 10 -5 0 -7 4 -4 10 3 6 -1 7 -10 4 -11 -5 -14 -2 -9 10 9 23
1 20 -15 -6z"/>
<path d="M4500 3886 c0 -134 -4 -166 -21 -166 -13 0 -11 38 3 42 7 3 9 12 4
23 -11 30 -25 0 -27 -60 -2 -40 -3 -43 -6 -16 -3 26 -7 31 -14 20 -6 -10 -9
-2 -10 26 0 22 -5 51 -9 65 -5 15 -8 -33 -9 -122 l-1 -148 50 0 50 0 0 235 c0
129 -2 235 -5 235 -3 0 -5 -60 -5 -134z"/>
<path d="M7301 3994 c0 -11 3 -14 6 -6 3 7 2 16 -1 19 -3 4 -6 -2 -5 -13z"/>
<path d="M4941 3984 c0 -11 3 -14 6 -6 3 7 2 16 -1 19 -3 4 -6 -2 -5 -13z"/>
<path d="M2672 3983 c-10 -4 -10 -8 0 -21 11 -13 10 -15 -4 -9 -13 4 -16 1
-13 -14 3 -13 -3 -23 -18 -29 -21 -9 -21 -9 3 -7 36 4 50 15 43 34 -5 12 -3
14 8 8 12 -8 12 -6 0 9 -13 15 -13 19 0 27 15 9 3 11 -19 2z m3 -52 c3 -5 2
-12 -3 -15 -5 -3 -9 1 -9 9 0 17 3 19 12 6z"/>
<path d="M4040 3976 c0 -8 4 -17 9 -20 5 -4 7 3 4 14 -6 23 -13 26 -13 6z"/>
<path d="M4717 3977 c-3 -8 0 -21 8 -27 19 -15 27 3 11 25 -11 16 -14 16 -19
2z"/>
<path d="M2600 3976 c0 -2 7 -7 16 -10 8 -3 12 -2 9 4 -6 10 -25 14 -25 6z"/>
<path d="M2570 3960 c-9 -6 -10 -10 -3 -10 6 0 15 5 18 10 8 12 4 12 -15 0z"/>
<path d="M7163 3930 c0 -25 2 -35 4 -22 2 12 2 32 0 45 -2 12 -4 2 -4 -23z"/>
<path d="M4626 3948 c3 -4 11 -5 19 -1 8 3 15 1 15 -5 0 -5 8 -13 17 -16 15
-6 15 -5 -1 13 -16 18 -61 26 -50 9z"/>
<path d="M3977 3925 c3 -8 9 -12 14 -9 12 7 11 11 -5 17 -10 4 -13 1 -9 -8z"/>
<path d="M4048 3933 c7 -3 16 -2 19 1 4 3 -2 6 -13 5 -11 0 -14 -3 -6 -6z"/>
<path d="M4771 3926 c-8 -10 -9 -16 -1 -21 6 -4 9 -1 8 7 -2 7 3 12 10 10 8
-1 11 2 7 8 -8 13 -10 13 -24 -4z"/>
<path d="M7292 3920 c0 -14 2 -19 5 -12 2 6 2 18 0 25 -3 6 -5 1 -5 -13z"/>
<path d="M7591 3878 c0 -31 2 -59 7 -61 4 -3 6 16 4 41 -5 73 -10 82 -11 20z"/>
<path d="M7932 3910 c0 -14 2 -19 5 -12 2 6 2 18 0 25 -3 6 -5 1 -5 -13z"/>
<path d="M2383 3913 c15 -2 37 -2 50 0 12 2 0 4 -28 4 -27 0 -38 -2 -22 -4z"/>
<path d="M2586 3908 c3 -5 10 -6 15 -3 13 9 11 12 -6 12 -8 0 -12 -4 -9 -9z"/>
<path d="M2475 3900 c-18 -8 -17 -9 8 -9 15 -1 27 4 27 9 0 12 -8 12 -35 0z"/>
<path d="M2550 3895 c-7 -9 -8 -15 -2 -15 6 0 13 6 15 13 3 7 6 4 6 -6 1 -10
6 -15 11 -12 6 3 10 0 10 -7 0 -9 3 -9 10 2 9 14 14 7 11 -13 -1 -5 3 -6 8 -2
13 8 2 37 -13 32 -6 -3 -18 2 -27 10 -14 12 -18 11 -29 -2z"/>
<path d="M3647 3899 c7 -7 15 -10 18 -7 3 3 -2 9 -12 12 -14 6 -15 5 -6 -5z"/>
<path d="M4666 3901 c-4 -5 -2 -12 3 -15 5 -4 12 -2 15 3 4 5 2 12 -3 15 -5 4
-12 2 -15 -3z"/>
<path d="M2222 3870 c0 -19 2 -27 5 -17 2 9 2 25 0 35 -3 9 -5 1 -5 -18z"/>
<path d="M2328 3893 c7 -3 16 -2 19 1 4 3 -2 6 -13 5 -11 0 -14 -3 -6 -6z"/>
<path d="M3695 3890 c3 -5 8 -10 11 -10 2 0 4 5 4 10 0 6 -5 10 -11 10 -5 0
-7 -4 -4 -10z"/>
<path d="M4693 3880 c-8 -12 -9 -21 -3 -25 6 -4 9 -1 8 7 -2 7 2 12 9 11 7 -2
10 4 7 12 -8 19 -7 19 -21 -5z"/>
<path d="M4803 3893 c-10 -3 -9 -12 4 -36 13 -26 13 -30 1 -20 -14 12 -28 8
-28 -6 0 -11 69 -11 76 1 4 6 3 8 -3 5 -15 -9 -47 29 -40 48 4 8 5 15 4 14 -1
0 -8 -3 -14 -6z"/>
<path d="M2428 3883 c7 -3 16 -2 19 1 4 3 -2 6 -13 5 -11 0 -14 -3 -6 -6z"/>
<path d="M3720 3875 c-11 -13 -10 -14 4 -9 9 3 16 10 16 15 0 13 -6 11 -20 -6z"/>
<path d="M3645 3859 c-4 -11 -4 -23 -1 -26 3 -4 6 1 6 11 0 9 4 14 10 11 6 -3
7 1 4 9 -8 21 -11 20 -19 -5z"/>
<path d="M3985 3848 c-4 -18 -12 -38 -17 -45 -6 -7 -5 -14 2 -18 5 -3 10 2 11
12 0 17 1 17 8 -1 4 -12 7 0 7 33 0 28 -1 51 -2 51 -1 0 -6 -15 -9 -32z"/>
<path d="M2328 3863 c6 -2 18 -2 25 0 6 3 1 5 -13 5 -14 0 -19 -2 -12 -5z"/>
<path d="M2468 3863 c6 -2 18 -2 25 0 6 3 1 5 -13 5 -14 0 -19 -2 -12 -5z"/>
<path d="M3002 3853 c-7 -12 -12 -50 -13 -85 0 -44 -3 -57 -9 -43 -5 11 -9 33
-9 48 -1 45 -25 26 -31 -24 l-4 -44 -6 60 c-6 52 -7 45 -9 -50 -1 -60 -4 -118
-6 -127 -2 -11 3 -18 13 -18 15 0 15 -2 2 -10 -10 -6 61 -10 210 -10 l226 0
-2 28 c0 15 4 30 10 34 7 5 7 8 -2 8 -7 0 -10 5 -7 10 4 7 -54 10 -167 10
-137 1 -178 4 -198 16 -14 8 -17 13 -7 10 28 -10 42 -13 35 -9 -5 3 -9 41 -10
86 l-1 82 -7 -60 -7 -60 -1 67 c-1 42 2 68 10 70 6 2 9 11 6 18 -3 11 -8 10
-16 -7z m-45 -115 c-3 -8 -6 -5 -6 6 -1 11 2 17 5 13 3 -3 4 -12 1 -19z m83
-123 c0 -2 -7 -1 -17 2 -12 5 -14 3 -8 -7 6 -10 4 -10 -10 -2 -10 5 -20 17
-21 26 -2 14 1 14 27 1 16 -9 29 -18 29 -20z"/>
<path d="M4461 3854 c0 -11 3 -14 6 -6 3 7 2 16 -1 19 -3 4 -6 -2 -5 -13z"/>
<path d="M2398 3853 c7 -3 16 -2 19 1 4 3 -2 6 -13 5 -11 0 -14 -3 -6 -6z"/>
<path d="M2415 3840 c-14 -6 -5 -9 35 -9 39 -1 51 2 40 9 -18 12 -48 12 -75 0z"/>
<path d="M2515 3840 c3 -5 12 -7 20 -3 21 7 19 13 -6 13 -11 0 -18 -4 -14 -10z"/>
<path d="M3691 3828 c-1 -20 7 -32 27 -45 15 -10 31 -23 35 -31 6 -10 39 -13
130 -12 164 1 157 2 157 -16 0 -14 -2 -15 -17 -3 -15 13 -15 12 -2 -9 8 -12
15 -18 17 -12 2 6 8 7 14 4 15 -9 59 18 54 33 -8 19 4 16 20 -4 19 -25 17 -38
-3 -22 -15 12 -16 12 -11 -3 4 -9 1 -19 -7 -22 -9 -3 -12 0 -9 9 5 12 1 12
-25 -1 -17 -9 -31 -21 -31 -27 0 -7 4 -6 10 3 7 11 10 11 10 2 0 -7 3 -11 8
-8 7 4 10 -13 15 -82 2 -20 3 -21 15 -5 15 21 39 25 39 7 0 -10 -4 -11 -12 -4
-9 8 -14 6 -19 -6 -3 -8 -6 -17 -6 -18 0 -2 25 -4 55 -5 30 -1 55 1 55 4 0 4
-10 28 -21 55 -12 27 -19 57 -15 65 4 10 2 14 -5 9 -8 -4 -9 1 -4 17 4 15 3
19 -3 11 -6 -9 -12 -5 -22 15 -7 15 -13 32 -12 36 3 13 -29 69 -36 63 -3 -4
-7 -17 -9 -29 -2 -17 -1 -19 6 -7 12 18 24 8 15 -14 -3 -9 -11 -13 -17 -9 -6
4 -8 -2 -5 -15 6 -21 -16 -51 -29 -39 -3 4 2 9 11 13 9 3 13 10 10 15 -3 5
-10 7 -15 4 -5 -4 -9 -3 -9 2 0 4 -66 7 -147 6 -87 -2 -140 1 -128 6 18 7 17
9 -11 15 -35 8 -59 30 -67 61 -4 15 -5 14 -6 -7z"/>
<path d="M3720 3829 c0 -12 8 -23 20 -26 11 -3 20 -9 20 -14 0 -5 19 -9 43 -8
32 0 37 2 22 9 -14 6 -5 9 35 9 30 0 62 -4 70 -9 13 -9 13 -10 0 -11 -10 0 -8
-3 5 -9 27 -11 44 -12 26 -1 -8 5 -12 17 -9 27 5 18 -3 19 -106 19 -100 0
-111 2 -110 18 1 9 -2 17 -7 17 -5 0 -9 -9 -9 -21z"/>
<path d="M7175 3839 c-4 -6 -5 -12 -2 -15 2 -3 7 2 10 11 7 17 1 20 -8 4z"/>
<path d="M7932 3825 c0 -16 2 -22 5 -12 2 9 2 23 0 30 -3 6 -5 -1 -5 -18z"/>
<path d="M2368 3833 c7 -3 16 -2 19 1 4 3 -2 6 -13 5 -11 0 -14 -3 -6 -6z"/>
<path d="M4443 3800 c0 -25 2 -35 4 -22 2 12 2 32 0 45 -2 12 -4 2 -4 -23z"/>
<path d="M2383 3813 c26 -2 68 -2 95 0 26 2 4 3 -48 3 -52 0 -74 -1 -47 -3z"/>
<path d="M3625 3810 c-3 -6 1 -13 9 -16 9 -3 16 -10 16 -15 0 -6 -9 -5 -20 1
-14 8 -20 8 -20 0 0 -6 -3 -9 -8 -6 -4 2 -7 -15 -7 -39 1 -25 -1 -42 -4 -40
-4 5 -21 -24 -34 -58 -4 -11 -3 -16 3 -12 15 9 12 2 -14 -34 -13 -17 -26 -27
-29 -21 -3 6 -4 5 -3 -2 2 -9 22 -13 60 -14 31 -1 60 -4 64 -8 4 -4 -26 -6
-66 -4 -39 1 -72 -1 -72 -5 0 -4 33 -7 72 -5 l73 3 -1 35 c-1 19 3 38 10 42 8
5 8 13 -1 28 -18 27 -16 39 5 36 19 -3 32 11 32 36 0 11 -7 15 -25 13 -14 -1
-25 1 -25 6 0 4 -7 14 -15 23 -14 14 -12 15 15 11 37 -4 42 20 8 36 -22 9 -21
9 5 6 15 -3 27 0 27 4 0 12 -47 11 -55 -1z m-1 -199 c-6 -6 -34 20 -34 32 0 6
8 2 19 -9 10 -10 17 -21 15 -23z"/>
<path d="M2307 3795 c-4 -8 -2 -17 3 -20 6 -4 10 3 10 14 0 25 -6 27 -13 6z"/>
<path d="M4830 3796 c0 -8 4 -17 9 -20 10 -7 23 19 14 28 -11 11 -23 6 -23 -8z"/>
<path d="M2267 3776 c-9 -9 -23 -16 -31 -16 -17 0 -19 -14 -21 -147 l-2 -63
54 0 53 0 0 100 c0 85 -3 104 -19 121 -17 18 -20 19 -34 5z m30 -32 c5 -15
-20 -24 -37 -14 -7 4 -9 13 -5 19 8 14 37 11 42 -5z"/>
<path d="M3683 3774 c5 -32 17 -46 31 -35 7 6 16 8 19 4 4 -3 7 -1 7 6 0 7 -6
11 -12 8 -7 -2 -21 5 -31 16 -17 20 -17 20 -14 1z"/>
<path d="M7787 3755 c-4 -8 -3 -16 1 -19 4 -3 9 4 9 15 2 23 -3 25 -10 4z"/>
<path d="M7700 3670 c-9 -6 -10 -10 -3 -10 6 0 15 5 18 10 8 12 4 12 -15 0z"/>
<path d="M3661 3660 c0 -8 3 -21 8 -28 6 -11 10 -10 15 4 3 9 4 19 1 22 -3 3
-5 -1 -6 -9 0 -8 -4 -6 -9 6 -6 13 -9 15 -9 5z"/>
<path d="M7488 3643 c7 -3 16 -2 19 1 4 3 -2 6 -13 5 -11 0 -14 -3 -6 -6z"/>
<path d="M2227 3533 c18 -2 50 -2 70 0 21 2 7 4 -32 4 -38 0 -55 -2 -38 -4z"/>
<path d="M3018 3533 c67 -2 177 -2 245 0 67 1 12 3 -123 3 -135 0 -190 -2
-122 -3z"/>
<path d="M4127 3533 c18 -2 50 -2 70 0 21 2 7 4 -32 4 -38 0 -55 -2 -38 -4z"/>
<path d="M2358 3193 c12 -2 30 -2 40 0 9 3 -1 5 -23 4 -22 0 -30 -2 -17 -4z"/>
<path d="M4288 3193 c12 -2 30 -2 40 0 9 3 -1 5 -23 4 -22 0 -30 -2 -17 -4z"/>
<path d="M5593 3193 c9 -2 25 -2 35 0 9 3 1 5 -18 5 -19 0 -27 -2 -17 -5z"/>
<path d="M7003 3193 c9 -2 25 -2 35 0 9 3 1 5 -18 5 -19 0 -27 -2 -17 -5z"/>
<path d="M7458 3193 c12 -2 30 -2 40 0 9 3 -1 5 -23 4 -22 0 -30 -2 -17 -4z"/>
<path d="M3882 3013 l-2 -182 -32 -4 -33 -4 33 -1 c19 -1 35 3 38 11 2 7 3 91
1 187 l-3 175 -2 -182z"/>
<path d="M5255 3008 l0 -183 30 -1 c28 -1 28 -1 3 3 l-28 4 -3 180 -3 179 1
-182z"/>
<path d="M6202 3013 l-2 -183 -34 0 c-27 0 -34 4 -31 18 1 9 0 11 -2 4 -3 -7
-10 -9 -16 -5 -7 4 -6 -1 2 -10 16 -20 79 -23 87 -4 2 7 3 91 1 187 l-3 175
-2 -182z"/>
<path d="M6492 3160 c0 -19 2 -27 5 -17 2 9 2 25 0 35 -3 9 -5 1 -5 -18z"/>
<path d="M7814 3035 c0 -88 2 -123 3 -77 2 46 2 118 0 160 -1 42 -3 5 -3 -83z"/>
<path d="M3392 3008 l-2 -177 -32 -4 -33 -4 33 -1 c19 -1 35 3 38 11 2 7 3 89
1 182 l-3 170 -2 -177z"/>
<path d="M4004 3010 c0 -96 2 -136 3 -87 2 48 2 126 0 175 -1 48 -3 8 -3 -88z"/>
<path d="M7754 3010 c0 -96 2 -136 3 -87 2 48 2 126 0 175 -1 48 -3 8 -3 -88z"/>
<path d="M2850 3166 c0 -2 8 -10 18 -17 15 -13 16 -12 3 4 -13 16 -21 21 -21
13z"/>
<path d="M5469 3143 c-13 -16 -12 -17 4 -4 16 13 21 21 13 21 -2 0 -10 -8 -17
-17z"/>
<path d="M4060 2991 l0 -160 -32 -4 c-32 -4 -32 -4 5 -5 l37 -2 0 165 c0 91
-2 165 -5 165 -3 0 -5 -72 -5 -159z"/>
<path d="M7120 3146 c0 -2 8 -10 18 -17 15 -13 16 -12 3 4 -13 16 -21 21 -21
13z"/>
<path d="M2353 3133 c9 -2 25 -2 35 0 9 3 1 5 -18 5 -19 0 -27 -2 -17 -5z"/>
<path d="M2714 3126 c-3 -7 -3 -35 -1 -62 l3 -49 2 57 c2 54 3 57 30 61 l27 4
-28 2 c-15 0 -30 -5 -33 -13z"/>
<path d="M5593 3133 c9 -2 23 -2 30 0 6 3 -1 5 -18 5 -16 0 -22 -2 -12 -5z"/>
<path d="M7003 3133 c9 -2 25 -2 35 0 9 3 1 5 -18 5 -19 0 -27 -2 -17 -5z"/>
<path d="M7453 3133 c9 -2 25 -2 35 0 9 3 1 5 -18 5 -19 0 -27 -2 -17 -5z"/>
<path d="M3130 2981 l0 -150 -32 -4 c-32 -4 -32 -4 5 -5 l37 -2 0 155 c0 85
-2 155 -5 155 -3 0 -5 -67 -5 -149z"/>
<path d="M5052 2983 l-2 -152 -32 -4 -33 -4 33 -1 c19 -1 35 3 38 11 2 7 3 78
1 157 l-3 145 -2 -152z"/>
<path d="M6605 2978 l0 -153 33 -3 32 -3 -2 158 -2 158 -3 -152 -4 -153 -24 0
-24 0 -4 150 -3 150 1 -152z"/>
<path d="M4994 2980 c0 -80 2 -112 3 -72 2 39 2 105 0 145 -1 39 -3 7 -3 -73z"/>
<path d="M5514 3098 l-19 -23 23 19 c12 11 22 21 22 23 0 8 -8 2 -26 -19z"/>
<path d="M6929 3103 c-13 -16 -12 -17 4 -4 16 13 21 21 13 21 -2 0 -10 -8 -17
-17z"/>
<path d="M7540 3116 c0 -2 8 -10 18 -17 15 -13 16 -12 3 4 -13 16 -21 21 -21
13z"/>
<path d="M3074 2975 c0 -77 2 -107 3 -67 2 40 2 103 0 140 -2 37 -3 4 -3 -73z"/>
<path d="M7596 3102 c-3 -5 1 -9 9 -9 8 0 12 4 9 9 -3 4 -7 8 -9 8 -2 0 -6 -4
-9 -8z"/>
<path d="M3818 2998 c5 -150 8 -165 10 -40 1 67 -1 122 -5 122 -5 0 -7 -37 -5
-82z"/>
<path d="M7600 3070 c8 -5 20 -10 25 -10 6 0 3 5 -5 10 -8 5 -19 10 -25 10 -5
0 -3 -5 5 -10z"/>
<path d="M5894 2950 c0 -63 1 -89 3 -57 2 31 2 83 0 115 -2 31 -3 5 -3 -58z"/>
<path d="M5422 3025 c0 -16 2 -22 5 -12 2 9 2 23 0 30 -3 6 -5 -1 -5 -18z"/>
<path d="M5482 3010 c0 -14 2 -19 5 -12 2 6 2 18 0 25 -3 6 -5 1 -5 -13z"/>
<path d="M6832 3005 c0 -16 2 -22 5 -12 2 9 2 23 0 30 -3 6 -5 -1 -5 -18z"/>
<path d="M2181 3004 c0 -11 3 -14 6 -6 3 7 2 16 -1 19 -3 4 -6 -2 -5 -13z"/>
<path d="M7162 3015 c4 -4 3 -14 -4 -22 -6 -7 -9 -15 -7 -18 3 -2 10 4 17 15
9 15 9 21 -1 26 -6 4 -9 4 -5 -1z"/>
<path d="M7651 3004 c0 -11 3 -14 6 -6 3 7 2 16 -1 19 -3 4 -6 -2 -5 -13z"/>
<path d="M7772 2985 c0 -16 2 -22 5 -12 2 9 2 23 0 30 -3 6 -5 -1 -5 -18z"/>
<path d="M6056 2992 c-3 -5 1 -9 9 -9 8 0 12 4 9 9 -3 4 -7 8 -9 8 -2 0 -6 -4
-9 -8z"/>
<path d="M5721 2974 c0 -11 3 -14 6 -6 3 7 2 16 -1 19 -3 4 -6 -2 -5 -13z"/>
<path d="M4680 2970 l-55 -7 52 -1 c28 -1 55 3 58 8 3 6 5 9 3 8 -2 -1 -28 -4
-58 -8z"/>
<path d="M7310 2959 c0 -9 7 -24 16 -35 14 -18 14 -18 3 6 -7 14 -11 27 -10
28 2 2 0 6 -3 10 -3 3 -6 -1 -6 -9z"/>
<path d="M6046 2948 c3 -5 10 -6 15 -3 13 9 11 12 -6 12 -8 0 -12 -4 -9 -9z"/>
<path d="M7146 2951 c-3 -5 2 -15 12 -22 15 -12 16 -12 5 2 -7 9 -10 19 -6 22
3 4 4 7 0 7 -3 0 -8 -4 -11 -9z"/>
<path d="M2748 2943 c6 -2 18 -2 25 0 6 3 1 5 -13 5 -14 0 -19 -2 -12 -5z"/>
<path d="M6867 2939 c7 -9 9 -20 5 -24 -4 -5 -2 -5 5 -2 6 4 13 1 16 -5 3 -7
4 -3 4 9 -1 12 -3 20 -6 18 -2 -3 -11 1 -20 8 -14 10 -14 10 -4 -4z"/>
<path d="M7344 2932 c4 -3 14 -7 22 -8 9 -1 13 0 10 4 -4 3 -14 7 -22 8 -9 1
-13 0 -10 -4z"/>
<path d="M7589 2923 c-13 -16 -12 -17 4 -4 16 13 21 21 13 21 -2 0 -10 -8 -17
-17z"/>
<path d="M2712 2883 c-2 -50 -3 -52 -34 -56 l-33 -4 33 -1 c38 -2 45 9 39 69
l-4 44 -1 -52z"/>
<path d="M7772 2900 c0 -19 2 -27 5 -17 2 9 2 25 0 35 -3 9 -5 1 -5 -18z"/>
<path d="M4607 2913 c-3 -5 18 -7 46 -5 86 5 96 9 25 11 -37 0 -69 -2 -71 -6z"/>
<path d="M7126 2884 c-17 -15 -35 -23 -45 -19 -12 5 -13 3 -5 -5 14 -14 39 -3
68 29 26 28 17 26 -18 -5z"/>
<path d="M3669 2887 c5 -5 21 -7 37 -5 27 3 26 4 -8 9 -22 3 -34 1 -29 -4z"/>
<path d="M5470 2896 c0 -2 8 -10 18 -17 15 -13 16 -12 3 4 -13 16 -21 21 -21
13z"/>
<path d="M6110 2880 c-6 -11 -8 -20 -6 -20 3 0 10 9 16 20 6 11 8 20 6 20 -3
0 -10 -9 -16 -20z"/>
<path d="M7370 2893 c5 -2 7 -9 4 -15 -11 -18 30 -38 70 -33 21 2 41 7 45 11
3 3 -15 3 -40 0 -36 -5 -49 -3 -60 10 -8 10 -13 20 -11 23 2 3 -1 6 -7 8 -7 1
-8 0 -1 -4z"/>
<path d="M7570 2882 c0 -12 3 -12 15 -2 8 7 15 13 15 15 0 1 -7 2 -15 2 -8 0
-15 -7 -15 -15z"/>
<path d="M2494 2868 l-19 -23 23 19 c21 18 27 26 19 26 -2 0 -12 -10 -23 -22z"/>
<path d="M5734 2868 l-19 -23 23 19 c21 18 27 26 19 26 -2 0 -12 -10 -23 -22z"/>
<path d="M6889 2867 c25 -27 43 -39 22 -14 -6 8 -7 18 -3 23 4 5 3 6 -2 2 -5
-4 -16 -2 -25 4 -9 7 -5 0 8 -15z"/>
<path d="M7334 2872 c23 -26 23 -26 23 -7 0 8 -3 13 -5 10 -3 -3 -12 1 -21 7
-10 8 -9 4 3 -10z"/>
<path d="M7594 2868 l-19 -23 23 19 c21 18 27 26 19 26 -2 0 -12 -10 -23 -22z"/>
<path d="M4293 2873 c9 -2 23 -2 30 0 6 3 -1 5 -18 5 -16 0 -22 -2 -12 -5z"/>
<path d="M7008 2873 c7 -3 16 -2 19 1 4 3 -2 6 -13 5 -11 0 -14 -3 -6 -6z"/>
<path d="M4190 2866 c0 -2 8 -10 18 -17 15 -13 16 -12 3 4 -13 16 -21 21 -21
13z"/>
<path d="M4399 2853 c-13 -16 -12 -17 4 -4 16 13 21 21 13 21 -2 0 -10 -8 -17
-17z"/>
<path d="M6969 2862 c10 -7 10 -11 1 -14 -7 -2 13 -4 43 -5 46 -1 55 1 50 14
-4 11 -8 11 -13 3 -5 -7 -17 -9 -31 -5 -53 15 -64 17 -50 7z"/>
<path d="M7941 2854 c0 -11 3 -14 6 -6 3 7 2 16 -1 19 -3 4 -6 -2 -5 -13z"/>
<path d="M5015 2850 c-3 -5 1 -10 10 -10 9 0 13 5 10 10 -3 6 -8 10 -10 10 -2
0 -7 -4 -10 -10z"/>
<path d="M5580 2850 c-11 -8 -7 -9 15 -4 37 8 45 14 19 14 -10 0 -26 -5 -34
-10z"/>
<path d="M7770 2850 c0 -5 5 -10 11 -10 5 0 7 5 4 10 -3 6 -8 10 -11 10 -2 0
-4 -4 -4 -10z"/>
<path d="M7820 2850 c0 -3 26 -7 58 -8 65 -1 60 4 -10 11 -27 2 -48 1 -48 -3z"/>
<path d="M5918 2843 c7 -3 16 -2 19 1 4 3 -2 6 -13 5 -11 0 -14 -3 -6 -6z"/>
<path d="M6628 2843 c7 -3 16 -2 19 1 4 3 -2 6 -13 5 -11 0 -14 -3 -6 -6z"/>
<path d="M4789 2827 c5 -5 21 -7 37 -5 27 3 26 4 -8 9 -22 3 -34 1 -29 -4z"/>
<path d="M2318 2823 c7 -3 16 -2 19 1 4 3 -2 6 -13 5 -11 0 -14 -3 -6 -6z"/>
<path d="M3523 2823 c9 -2 25 -2 35 0 9 3 1 5 -18 5 -19 0 -27 -2 -17 -5z"/>
<path d="M4523 2823 c9 -2 25 -2 35 0 9 3 1 5 -18 5 -19 0 -27 -2 -17 -5z"/>
<path d="M5558 2823 c7 -3 16 -2 19 1 4 3 -2 6 -13 5 -11 0 -14 -3 -6 -6z"/>
<path d="M5903 2823 c9 -2 25 -2 35 0 9 3 1 5 -18 5 -19 0 -27 -2 -17 -5z"/>
<path d="M7048 2823 c7 -3 16 -2 19 1 4 3 -2 6 -13 5 -11 0 -14 -3 -6 -6z"/>
<path d="M7418 2823 c7 -3 16 -2 19 1 4 3 -2 6 -13 5 -11 0 -14 -3 -6 -6z"/>
<path d="M7508 2823 c7 -3 16 -2 19 1 4 3 -2 6 -13 5 -11 0 -14 -3 -6 -6z"/>
<path d="M7803 2823 c31 -2 83 -2 115 0 31 2 5 3 -58 3 -63 0 -89 -1 -57 -3z"/>
</g>
</svg>
